<?xml version="1.0" encoding="UTF-8"?>
<svg id="Capa_1" data-name="Capa 1" xmlns="http://www.w3.org/2000/svg" viewBox="0 0 400 400">
  <defs>
    <style>
      .cls-1 {
        fill: #c59d5f;
        stroke-width: 0px;
      }
    </style>
  </defs>
  <path class="cls-1" d="M345.73,254.95c-19.89-46.06-50.78-84.24-91.81-113.5-3.47-2.48-4.41-4.91-3.48-8.97,5.01-21.8,9.7-43.6,14.23-64.67.74-3.48,2.4-5.32,5.7-6.33,10.68-3.28,18.54-10.01,23.37-20.01.91-1.88,1.18-4.59.64-6.29-4.71-14.64-20.79-25.68-37.41-25.68-4.94,0-9.59.97-13.8,2.88-3.3,1.5-4.39,4.11-3.08,7.33.68,1.64,1.89,3.18,3.07,4.67,4.95,6.27,8.16,12.41,10.08,19.33l.9,3.2-3-1.45c-6.92-3.36-13.44-5-19.96-5-2.17,0-4.38.19-6.56.56-8.84,1.48-16.73,5.78-23.46,12.79l-1.04,1.09-1.08-1.05c-9.29-8.99-19.05-13.36-29.82-13.36-6.54,0-13.53,1.69-20.79,5.02l-2.93,1.35.86-3.12c2.43-8.76,7.14-15.35,11.76-21.34,1.37-1.78,2.86-4.36,2.19-6.54-.67-2.21-3.42-3.54-5.61-4.27-3.99-1.33-8.14-2-12.32-2-16.16,0-30.82,10.1-36.5,25.12-.69,1.83-.55,4.74.34,6.61,4.68,9.97,12.51,16.74,23.25,20.12,3.45,1.09,5.18,3.01,5.94,6.61,4.09,19.13,8.97,41.83,14.28,65.11.82,3.62-.02,5.77-3.09,7.92-19.6,13.71-37.02,29.8-51.78,47.82-20.14,24.58-35.62,51.29-46,79.38-10.41,28.18-15.99,58.54-16.59,90.26-.07,3.58,1.06,6.07,3.9,8.6,12.68,11.27,28.66,17.48,45,17.48,11.51,0,23.06-3.1,33.4-8.96,1.2-.67,2.64-1.37,4.21-1.37,1.48,0,2.89.58,4.55,1.87,12.03,9.37,25.7,14.11,40.64,14.11,3.23,0,6.58-.22,9.94-.66,11.35-1.47,21.95-5.97,32.4-13.75l.83-.62.87.56c.2.12.38.23.56.34.39.23.76.46,1.13.74,11.19,8.78,25.63,13.62,40.68,13.62,13.81,0,27.26-4.11,37.86-11.57,1.16-.81,2.69-.98,3.77-.98,1.2,0,2.45.21,3.43.58,9.07,3.42,18.01,5.16,26.57,5.16,13.93,0,27.46-4.62,40.22-13.71,3.97-2.83,5.64-6.19,5.59-11.24-.32-35.72-7.74-70.64-22.05-103.79ZM143.87,22.26l-5.4,13.93-5.45,14.07-.52,1.36-1.37-.48c-5.88-2.05-10.83-6.15-14.31-11.84-.79-1.3-.31-3.21.1-4.13,3.61-8.15,14.55-15.03,23.91-15.03.61,0,1.22.03,1.8.09l1.94.21-.7,1.82ZM256.98,20.31c.73-.12,1.51-.17,2.31-.17,9.38,0,21.3,7.71,24.06,15.56.46,1.3.16,2.89-.34,3.89-2.38,4.81-9.1,10.07-14.67,11.48l-1.29.32-.48-1.24-5.47-14.15-5.29-13.67-.67-1.73,1.84-.29ZM145.61,66.01c-.47-2.2.74-5.08,2.13-6.48,5.57-5.65,12.96-8.76,20.82-8.76,9.99.01,19.35,5.07,25.04,13.55,2.03,3.02,3.7,4.31,5.61,4.31.47,0,.97-.08,1.49-.24,2.03-.63,4.32-2.38,5.7-4.37,5.75-8.28,15.11-13.22,25.03-13.22,7.76,0,15.13,3,20.75,8.45,2.33,2.25,3,4.41,2.31,7.45-4.47,19.73-9,40.32-13.86,62.96-.62,2.88-2.11,4.16-4.82,4.16-.15,0-.31,0-.48-.01-1.15-.05-2.41-.08-3.96-.08-.98,0-1.98.01-3.01.02-1.13.01-2.29.02-3.52.02h-1.83l.36-1.8c.27-1.29.53-2.52.78-3.69.51-2.46,1-4.78,1.4-7.06.37-2.1.4-5.77-3.54-6.68-.5-.11-.99-.17-1.45-.17-2.5,0-4.28,1.67-5.03,4.69-.73,2.98-1.37,5.94-2.04,9.08-.29,1.38-.59,2.78-.9,4.2l-.26,1.18h-24.61l-.27-1.17c-.29-1.31-.58-2.62-.87-3.92-.63-2.87-1.29-5.84-1.97-8.74-.56-2.43-1.91-5.32-5.15-5.32-.41,0-.83.05-1.27.13-3.99.79-4.18,4.43-3.63,7.34.41,2.19.87,4.39,1.37,6.72.23,1.1.47,2.22.71,3.4l.37,1.81h-1.84c-1.14,0-2.25.01-3.34.02-1.05.01-2.08.03-3.1.03-2.12,0-3.75-.06-5.29-.18-1.71-.14-3.51-2.18-3.87-3.77-5.64-25.09-10.07-45.38-13.96-63.86ZM354.88,362.27c-8.62,7.04-20.93,11.07-33.77,11.07-8.95,0-17.25-1.96-24.01-5.67l-.75-.41-.03-.85c-.15-3.96-.26-7.95-.37-11.81-.23-8.4-.47-17.1-1.19-25.55-1.98-23.54-8.02-47.13-17.96-70.12-1.4-3.24-3.19-4.88-5.33-4.88-.65,0-1.35.15-2.09.45-1.27.51-2.14,1.33-2.6,2.43-.64,1.54-.45,3.59.54,5.91,9.47,22.29,14.99,43.46,16.9,64.73,1.04,11.56,1.07,23.36,1.1,34.78v1.71c.01,2.45-2.2,5.4-4.34,6.85-8.99,6.06-19.56,9.26-30.58,9.26-12.74,0-25.37-4.38-35.56-12.34-3.76-2.95-5.85-4.04-7.71-4.04s-4,1.11-7.84,4.11c-10.2,7.97-22.32,12.18-35.03,12.18-13.75,0-27.03-5.1-37.41-14.37-2.06-1.84-3.67-4.8-4.01-7.38-4.13-31.23-1.58-62.74,7.55-93.65.06-.19.13-.37.2-.54.03-.09.07-.18.1-.28,1.9-6.45-.32-8.09-2.76-8.85-.62-.19-1.21-.29-1.74-.29-.88,0-3.55,0-5.4,6.17-9.9,33-12.63,66.53-8.12,99.66.46,3.39-.93,4.96-3.16,6.27-8.29,4.85-17.96,7.42-27.98,7.42-13.35,0-26.09-4.51-35.89-12.69-1.42-1.19-2.9-3.61-2.84-5.76,1.3-49.68,15.58-95.69,42.44-136.74,18.99-29.01,43.52-53.74,72.93-73.49,1.41-.95,3.36-1.53,5.2-1.53,12.39-.04,24.54-.06,36.11-.06,12.72,0,25.24.02,37.22.07,1.83.01,3.97.7,5.57,1.8,59.85,41.31,97.06,97.98,110.58,168.44,1.96,10.23,2.74,20.81,3.49,31.04.28,3.85.58,7.84.93,11.73.17,1.91-1.08,4.16-2.39,5.22Z"/>
</svg>