<?xml version="1.0" encoding="UTF-8"?>
<svg id="Capa_1" data-name="Capa 1" xmlns="http://www.w3.org/2000/svg" viewBox="0 0 400 400">
  <defs>
    <style>
      .cls-1 {
        fill: #c59d5f;
        stroke-width: 0px;
      }
    </style>
  </defs>
  <path class="cls-1" d="M323.3,208.65c-2.78-19.15-5.59-38.3-8.42-57.44-4.64-31.37-9.35-62.73-13.87-94.12-.52-3.62-2.15-5.77-5.14-7.61-20.72-12.77-41.38-25.66-62.03-38.54-1.33-.83-2.47-1.95-3.69-2.93h-5.25c-4.38,5.57-9.9,9.76-16.32,12.61-11.15,4.95-22.78,1.52-30.43-8.75-.95-1.27-1.83-2.58-2.74-3.87h-5.25c-1.37,1.02-2.68,2.15-4.13,3.05-20.65,12.89-41.31,25.78-62.01,38.6-2.62,1.62-4.13,3.52-4.6,6.73-3.18,22.12-6.56,44.21-9.87,66.32-4.31,28.77-8.63,57.54-12.91,86.31-.51,3.44.9,5.83,4.39,6.77,10,2.69,19.99,5.43,30.01,8.03,4.09,1.06,6.54-.64,7.28-4.82.83-4.67,1.54-9.36,2.32-14.04,1.78-10.67,3.56-21.33,5.34-32,.55,14.31.55,28.54.56,42.78,0,6.75.99,7.71,7.89,7.71,3.36,0,6.72,0,10.4,0,.18,1.99.41,3.82.51,5.66.6,10.48,1.15,20.96,1.77,31.44,2.43,41.41,4.91,82.82,7.27,124.24.18,3.13,1.09,5.56,3.76,7.23h84c1.23-2.16,3.37-4.25,3.54-6.49,1.27-17.07,2.16-34.17,3.15-51.26,1.85-31.93,3.68-63.87,5.53-95.8.29-4.96.66-9.92.99-15.02,5.81,0,11.29.04,16.76-.01,4.54-.04,6.08-1.58,6.12-6.08.05-5.57.01-11.15.01-16.72.53.53.72,1.1.82,1.68.95,5.41,1.89,10.82,2.83,16.23.82,4.71,3.1,6.32,7.62,5.14,9.66-2.51,19.31-5.06,28.94-7.67,4.39-1.19,5.48-2.85,4.83-7.34ZM121.24,139.13c-4.21,23.59-7.93,47.27-11.87,70.91-.12.72-.33,1.43-.59,2.57-6.71-1.79-13.32-3.45-19.83-5.42-.68-.2-1.3-2.23-1.15-3.3,1.73-12.36,3.63-24.7,5.47-37.05,4.63-31.12,9.24-62.24,13.88-93.35.75-5.05.4-10.86,2.88-14.89,2.23-3.63,7.64-5.31,11.65-7.83,1.36-.86,2.74-1.68,4.86-2.98v9.71c0,6.87-.29,13.76.06,20.62,1.05,20.6-1.74,40.81-5.35,61.02ZM232.97,23.25c11.16,3.02,14.82,12.62,19.85,21.45-4.2,3.27-8.34,6.45-12.43,9.69-3.95,3.12-4.3,5.05-1.66,9.23,2.53,4.01,5.1,8,7.86,12.31-7.27,9.25-14.56,18.51-21.85,27.78,6.08-26.57,7.98-53.41,8.23-80.46ZM222.88,23.94c-1.35,37.29-2.99,73.45-20.56,106.71-17.81-32.38-21.25-67.86-24.26-104.42,15.61,10.32,29.98,8.34,44.82-2.29ZM204.97,200.99h-5.16c.83-2.21,1.54-4.12,2.59-6.92,1.08,2.9,1.75,4.71,2.57,6.92ZM167.77,22.43c1.43,26.76,4.36,53.15,10.68,79.23-6.7-8.51-13.39-17.01-20.24-25.71,2.65-4.14,5.27-8.2,7.84-12.3,2.63-4.18,2.31-6.14-1.6-9.26-4.09-3.26-8.24-6.44-12.83-10.02,5.11-7.43,5.75-17.75,16.16-21.94ZM136.53,213.74v-5.5c0-53.87,0-107.75,0-161.62,0-5.79.57-6.54,7-8.65-.78,1.74-1.39,3.17-2.06,4.58-1.95,4.14-1.65,5.54,1.88,8.35,4,3.18,8.02,6.33,12.33,9.74-2.11,3.36-4.14,6.6-6.19,9.84-3.62,5.74-3.59,6.35.5,11.54,14.71,18.64,29.35,37.33,44.17,55.88,2.26,2.83,3.3,5.62,3.04,9.19-.85,11.82-.81,23.77-2.5,35.47-2.71,18.79-10.52,27.79-29.84,29.66-9.26.9-18.59,1.03-28.33,1.53ZM194.89,381.32h-30.38c-.12-1.74-.25-3.54-.39-5.64h30.78v5.64ZM235.79,381.35h-30.28v-5.71h30.66c-.13,2.06-.25,3.78-.37,5.71ZM236.75,365.07h-31.48v-4.36c0-41.11,0-82.21,0-123.32,0-5.66-1.74-8.3-5.35-8.17-3.4.12-4.89,2.63-4.89,8.23,0,40.98,0,81.96,0,122.94v4.59h-31.49c-2.72-47.09-5.45-94.17-8.2-141.7,4.14-.48,8.17-.89,12.19-1.42,8.65-1.14,16.9-3.37,23.71-9.25,7.44,0,14.89.01,22.33.02,8.12,6.92,18.04,8.69,28.17,9.85.96.11,1.92.26,3.21.44-2.73,47.39-5.46,94.59-8.2,142.15ZM268.26,130.59c0,25.97,0,51.94,0,77.92,0,1.47,0,2.95,0,4.9-2.15,0-3.98.11-5.8-.02-9.56-.67-19.2-.89-28.67-2.26-11.15-1.61-18.27-8.58-21.62-19.31-3.72-11.94-3.67-24.35-4.66-36.66-.74-9.28,1.89-16.49,7.94-23.69,13.65-16.24,26.4-33.24,39.51-49.93,3.88-4.95,3.89-5.44.45-10.87-2.1-3.32-4.19-6.64-6.33-10.04,4.22-3.31,7.76-6.07,11.29-8.85,4.52-3.56,4.8-4.42,3.19-9.87,3.59.87,4.78,2.89,4.76,6.62-.16,27.35-.09,54.7-.09,82.06ZM308.84,208.12c-5.7,1.22-11.3,2.9-17.45,4.52-1.9-11.15-3.76-21.82-5.54-32.51-2.46-14.76-4.87-29.53-7.28-44.3-.18-1.1-.29-2.23-.29-3.35-.02-26.22-.01-52.44,0-78.67,0-.83.08-1.66.15-3.16,4.14,2.56,7.91,4.69,11.43,7.17.91.64,1.33,2.31,1.52,3.58,2.89,19.12,5.69,38.25,8.53,57.37,4.14,27.89,8.22,55.78,12.52,83.64.52,3.4-.07,4.94-3.57,5.69Z"/>
  <path class="cls-1" d="M178.37,160.42c3.24-.03,5.28-1.62,5.32-4.95.05-3.3-1.92-5.14-5.13-5.19-7.73-.12-15.46-.14-23.19,0-3.43.06-5.72,2.46-5.42,5.37.34,3.25,2.38,4.78,5.59,4.78,3.62,0,7.23,0,10.85,0,3.99,0,7.98.03,11.97-.01Z"/>
  <path class="cls-1" d="M249.15,150.25c-7.6-.13-15.21-.13-22.81,0-3.4.06-5.63,2.41-5.53,5.31.1,2.92,2.32,4.8,5.9,4.87,3.61.07,7.23.01,10.85.01,3.74,0,7.48.05,11.22-.01,3.62-.06,5.8-1.91,5.92-4.86.11-2.88-2.13-5.25-5.54-5.31Z"/>
</svg>